<svg width="18" height="18" viewBox="0 0 18 18" fill="none" xmlns="http://www.w3.org/2000/svg">
<g clip-path="url(#clip0_173_6416)">
<path d="M17.2969 2.00391H14.625V1.37109C14.625 0.982758 14.3102 0.667969 13.9219 0.667969C13.5335 0.667969 13.2188 0.982758 13.2188 1.37109V2.00391H9.70312V1.37109C9.70312 0.982758 9.38834 0.667969 9 0.667969C8.61166 0.667969 8.29688 0.982758 8.29688 1.37109V2.00391H4.78125V1.37109C4.78125 0.982758 4.46646 0.667969 4.07812 0.667969C3.68979 0.667969 3.375 0.982758 3.375 1.37109V2.00391H0.703125C0.314789 2.00391 0 2.3187 0 2.70703V16.6289C0 17.0172 0.314789 17.332 0.703125 17.332H17.2969C17.6852 17.332 18 17.0172 18 16.6289V2.70703C18 2.3187 17.6852 2.00391 17.2969 2.00391ZM16.5938 15.9258H1.40625V7.55859H16.5938V15.9258ZM16.5938 6.15234H1.40625V3.41016H3.375V4.04297C3.375 4.4313 3.68979 4.74609 4.07812 4.74609C4.46646 4.74609 4.78125 4.4313 4.78125 4.04297V3.41016H8.29688V4.04297C8.29688 4.4313 8.61166 4.74609 9 4.74609C9.38834 4.74609 9.70312 4.4313 9.70312 4.04297V3.41016H13.2188V4.04297C13.2188 4.4313 13.5335 4.74609 13.9219 4.74609C14.3102 4.74609 14.625 4.4313 14.625 4.04297V3.41016H16.5938V6.15234Z" fill="#CA9969"/>
</g>
<defs>
<clipPath id="clip0_173_6416">
<rect width="18" height="18" fill="white"/>
</clipPath>
</defs>
</svg>
